<svg viewBox="0 0 160 90" xmlns="http://www.w3.org/2000/svg" style="background: #e5ffe5">
  <svg viewBox="55 -10 120 120" xmlns="http://www.w3.org/2000/svg">
    <rect fill="#44A127" x="61.607" y="57.545" width="4.869" height="4.868" />
    <rect fill="#44A127" x="56.738" y="52.677" width="4.869" height="4.868" />
    <rect fill="#44A127" x="51.868" y="47.808" width="4.87" height="4.869" />
    <rect fill="#44A127" x="51.868" y="76.282" width="4.87" height="4.869" />
    <polygon fill="#44A127" points="51.868,76.282 51.868,71.414 49.434,71.414 46.999,71.414 46.999,76.282 49.434,76.282 " />
    <rect fill="#44A127" x="56.738" y="42.94" width="4.869" height="4.868" />
    <rect fill="#44A127" x="61.607" y="38.072" width="4.869" height="4.868" />
    <rect fill="#44A127" x="51.868" y="33.204" width="4.87" height="4.868" />
    <polygon fill="#44A127" points="71.35,62.415 66.478,62.408 66.478,85.999 61.607,85.999 61.607,81.151 56.738,81.151 56.738,85.999 51.868,85.999   51.868,81.151 49.434,81.151 46.999,81.151 46.999,85.999 42.129,85.999 42.129,81.151 37.259,81.151 37.259,85.999 32.389,85.999   32.389,62.408 27.518,62.415 27.518,85.999 24.108,85.999 24.108,90.48 49.434,90.48 74.759,90.48 74.759,85.999 71.35,85.999 " />
    <polygon fill="#44A127" points="49.434,10 24.013,10 24.013,14.481 27.422,14.481 27.422,38.065 32.294,38.072 32.294,14.481 49.434,14.481   66.573,14.481 66.573,38.072 71.445,38.065 71.445,14.481 74.854,14.481 74.854,10 " />
    <rect fill="#44A127" x="32.39" y="57.545" width="4.87" height="4.868" />
    <rect fill="#44A127" x="37.26" y="52.677" width="4.87" height="4.868" />
    <rect fill="#44A127" x="42.129" y="47.808" width="4.87" height="4.869" />
    <rect fill="#44A127" x="42.129" y="76.282" width="4.87" height="4.869" />
    <rect fill="#44A127" x="37.26" y="42.94" width="4.87" height="4.868" />
    <rect fill="#44A127" x="32.39" y="38.072" width="4.87" height="4.868" />
    <polygon fill="#44A127" points="49.434,42.94 51.868,42.94 51.868,38.072 49.434,38.072 46.999,38.072 46.999,42.94 " />
  </svg>

  <text x="60" y="53" font-weight="bold" font-family="sans-serif" font-size="20">Emtimer</text>

</svg>


